<?xml version="1.0" encoding="UTF-8" standalone="no"?>
<!-- Created with Inkscape (http://www.inkscape.org/) -->
<svg
   xmlns:dc="http://purl.org/dc/elements/1.1/"
   xmlns:cc="http://creativecommons.org/ns#"
   xmlns:rdf="http://www.w3.org/1999/02/22-rdf-syntax-ns#"
   xmlns:svg="http://www.w3.org/2000/svg"
   xmlns="http://www.w3.org/2000/svg"
   xmlns:sodipodi="http://sodipodi.sourceforge.net/DTD/sodipodi-0.dtd"
   xmlns:inkscape="http://www.inkscape.org/namespaces/inkscape"
   width="744.09448819"
   height="1052.3622047"
   id="svg2"
   sodipodi:version="0.32"
   inkscape:version="0.46"
   inkscape:export-filename="C:\Dev\projects\rubygame_movie_maker\samples\media\raindrop_small.png"
   inkscape:export-xdpi="2.9382977"
   inkscape:export-ydpi="2.9382977"
   sodipodi:docname="raindrop.svg"
   inkscape:output_extension="org.inkscape.output.svg.inkscape">
  <defs
     id="defs4">
    <inkscape:perspective
       sodipodi:type="inkscape:persp3d"
       inkscape:vp_x="0 : 526.18109 : 1"
       inkscape:vp_y="0 : 1000 : 0"
       inkscape:vp_z="744.09448 : 526.18109 : 1"
       inkscape:persp3d-origin="372.04724 : 350.78739 : 1"
       id="perspective10" />
    <filter
       inkscape:collect="always"
       id="filter3415"
       x="-0.30293281"
       width="1.6058656"
       y="-0.26616671"
       height="1.5323334">
      <feGaussianBlur
         inkscape:collect="always"
         stdDeviation="12.298826"
         id="feGaussianBlur3417" />
    </filter>
  </defs>
  <sodipodi:namedview
     id="base"
     pagecolor="#ffffff"
     bordercolor="#666666"
     borderopacity="1.0"
     gridtolerance="10000"
     guidetolerance="10"
     objecttolerance="10"
     inkscape:pageopacity="0.0"
     inkscape:pageshadow="2"
     inkscape:zoom="0.35"
     inkscape:cx="375"
     inkscape:cy="520"
     inkscape:document-units="px"
     inkscape:current-layer="layer1"
     showgrid="false" />
  <metadata
     id="metadata7">
    <rdf:RDF>
      <cc:Work
         rdf:about="">
        <dc:format>image/svg+xml</dc:format>
        <dc:type
           rdf:resource="http://purl.org/dc/dcmitype/StillImage" />
      </cc:Work>
    </rdf:RDF>
  </metadata>
  <g
     inkscape:label="Layer 1"
     inkscape:groupmode="layer"
     id="layer1">
    <path
       transform="translate(48.571429,214.28571)"
       style="fill:#0000ff;fill-opacity:1;fill-rule:evenodd;stroke:none;stroke-width:2;stroke-linecap:square;stroke-linejoin:round;stroke-miterlimit:4;stroke-opacity:1"
       d="M 295.4375 -98.78125 C 277.76345 -89.698371 272.54284 -68.385089 269.43821 -50.338053 C 251.49707 61.543611 249.94667 176.3939 217.92347 285.74661 C 202.66511 337.97712 178.43775 386.88342 155.39014 435.96521 C 128.33642 499.75244 158.42362 579.85961 218.15624 613.52948 C 266.75698 643.66103 332.96557 644.63288 380.78339 612.29414 C 426.12839 583.86358 456.58656 530.02836 450.61917 475.92417 C 447.15062 433.1183 425.83251 394.74304 404.78733 358.29258 C 368.66065 284.57839 357.80272 202.23586 345.09878 122.06664 C 334.90309 55.832673 328.23513 -11.09161 313.06262 -76.452721 C 310.41777 -85.483284 306.02261 -97.158968 295.4375 -98.78125 z "
       id="path2385" />
    <path
       style="opacity:0.94628104000000002;fill:#ffffff;fill-opacity:1;fill-rule:evenodd;stroke:none;stroke-width:2;stroke-linecap:square;stroke-linejoin:round;stroke-miterlimit:4;stroke-dasharray:none;stroke-opacity:1;filter:url(#filter3415)"
       d="M 244.93859,695.02803 C 230.29722,722.9166 234.1123,758.1621 256.97454,782.29225 C 277.28677,803.73097 307.19997,810.67217 333.70199,802.75391 C 318.3213,793.42185 303.38557,781.43369 289.72648,767.01709 C 268.60003,744.71899 253.51371,719.67373 244.93859,695.02803 z"
       id="path2388"
       inkscape:transform-center-x="130.06214"
       inkscape:transform-center-y="-226.91426"
       transform="matrix(1.0586453,0,0,1.1030554,-13.855773,-83.054966)" />
  </g>
</svg>
